# xmcd
#
# Track frame offsets: 
#        150
#        16823
#        42322
#        64275
#        86097
#        107430
#        127282
#        144485
#        163134
#        184116
#
# Disc length: 2777 seconds
#
# Revision: 0
# Processed by: cddbd v1.5.2PL0 Copyright (c) Steve Scherf et al.
# Submitted via: ExactAudioCopy v1.0b3
#
DISCID=8b0ad70a
DTITLE=Yen Khoa - Le Loi
DYEAR=2000
DGENRE=
TTITLE0=Ngang trai
TTITLE1=Le loi
TTITLE2=Yeu nguoi nhu the do
TTITLE3=Bien tinh
TTITLE4=Tinh vo tan (Hoang Chau cat cat)
TTITLE5=Bai ca dao dau doi
TTITLE6=Rong reu
TTITLE7=To duyen
TTITLE8=Yen Khoa, Thai Chau - Buon nhu phuong
TTITLE9=Huong chieu thu
EXTD=
EXTT0=
EXTT1=
EXTT2=
EXTT3=
EXTT4=
EXTT5=
EXTT6=
EXTT7=
EXTT8=
EXTT9=
PLAYORDER=
